<svg xmlns="http://www.w3.org/2000/svg" id="export" class="canvas" preserveAspectRatio="xMidYMid meet" style="" width="159" height="1266"><rect id="background" fill="#fff" pointer-events="all" style="" width="159" height="1266"/><g id="origin" transform="translate(7.225659179687501, 7.225659179687501) scale(1)"><g id="clusters" class="clusters"/><g id="edge-paths" class="edge-paths" style="pointer-events: none;"><defs><marker id="arrowhead" viewBox="0 0 10 10" refX="9" refY="5" markerUnits="strokeWidth" markerWidth="8" markerHeight="6" orient="auto" style="fill: rgb(0, 0, 0);"><path d="M 0 0 L 10 5 L 0 10 L 4 5 z" style="stroke-width: 1;"/></marker><marker id="arrowhead-select" viewBox="0 0 10 10" refX="9" refY="5" markerUnits="strokeWidth" markerWidth="8" markerHeight="6" orient="auto" style="fill: rgba(220, 0, 0, 0.9);"><path d="M 0 0 L 10 5 L 0 10 L 4 5 z" style="stroke-width: 1;"/></marker><marker id="arrowhead-hover" viewBox="0 0 10 10" refX="9" refY="5" markerUnits="strokeWidth" markerWidth="8" markerHeight="6" orient="auto" style="fill: rgba(220, 0, 0, 0.9);"><path d="M 0 0 L 10 5 L 0 10 L 4 5 z" style="stroke-width: 1;"/></marker></defs><path id="edge-input_3[0][0]" class="edge-path" d="M90.40380859375,23L90.40380859375,24.666666666666668C90.40380859375,26.333333333333332,90.40380859375,29.666666666666668,90.40380859375,35C90.40380859375,40.333333333333336,90.40380859375,47.666666666666664,90.40380859375,55C90.40380859375,62.333333333333336,90.40380859375,69.66666666666667,90.40380859375,75C90.40380859375,80.33333333333333,90.40380859375,83.66666666666667,90.40380859375,85.33333333333333L90.40380859375,87" style="stroke: rgb(0, 0, 0); stroke-width: 1px; fill: none; marker-end: url(&quot;#arrowhead&quot;);"/><path id="edge-conv1d_6[0][0]" class="edge-path" d="M90.40380859375,167L90.40380859375,168.66666666666666C90.40380859375,170.33333333333334,90.40380859375,173.66666666666666,90.40380859375,177C90.40380859375,180.33333333333334,90.40380859375,183.66666666666666,90.40380859375,185.33333333333334L90.40380859375,187" style="stroke: rgb(0, 0, 0); stroke-width: 1px; fill: none; marker-end: url(&quot;#arrowhead&quot;);"/><path id="edge-max_pooling1d_6[0][0]" class="edge-path" d="M90.40380859375,210L90.40380859375,211.66666666666666C90.40380859375,213.33333333333334,90.40380859375,216.66666666666666,90.40380859375,220C90.40380859375,223.33333333333334,90.40380859375,226.66666666666666,90.40380859375,228.33333333333334L90.40380859375,230" style="stroke: rgb(0, 0, 0); stroke-width: 1px; fill: none; marker-end: url(&quot;#arrowhead&quot;);"/><path id="edge-layer_normalization_1[0][0]" class="edge-path" d="M90.40380859375,287L90.40380859375,288.6666666666667C90.40380859375,290.3333333333333,90.40380859375,293.6666666666667,90.40380859375,297C90.40380859375,300.3333333333333,90.40380859375,303.6666666666667,90.40380859375,305.3333333333333L90.40380859375,307" style="stroke: rgb(0, 0, 0); stroke-width: 1px; fill: none; marker-end: url(&quot;#arrowhead&quot;);"/><path id="edge-conv1d_7[0][0]" class="edge-path" d="M90.40380859375,387L90.40380859375,388.6666666666667C90.40380859375,390.3333333333333,90.40380859375,393.6666666666667,90.40380859375,397C90.40380859375,400.3333333333333,90.40380859375,403.6666666666667,90.40380859375,405.3333333333333L90.40380859375,407" style="stroke: rgb(0, 0, 0); stroke-width: 1px; fill: none; marker-end: url(&quot;#arrowhead&quot;);"/><path id="edge-max_pooling1d_7[0][0]" class="edge-path" d="M90.40380859375,430L90.40380859375,431.6666666666667C90.40380859375,433.3333333333333,90.40380859375,436.6666666666667,90.40380859375,440C90.40380859375,443.3333333333333,90.40380859375,446.6666666666667,90.40380859375,448.3333333333333L90.40380859375,450" style="stroke: rgb(0, 0, 0); stroke-width: 1px; fill: none; marker-end: url(&quot;#arrowhead&quot;);"/><path id="edge-layer_normalization_2[0][0]" class="edge-path" d="M63.16131036931819,507L61.56818181818182,508.6666666666667C59.97505326704546,510.3333333333333,56.78879616477273,513.6666666666666,55.19566761363637,517C53.6025390625,520.3333333333334,53.6025390625,523.6666666666666,53.6025390625,525.3333333333334L53.6025390625,527" style="stroke: rgb(0, 0, 0); stroke-width: 1px; fill: none; marker-end: url(&quot;#arrowhead&quot;);"/><path id="edge-layer_normalization_2[0][0]" class="edge-path" d="M117.64630681818181,507L119.23943536931817,508.6666666666667C120.83256392045455,510.3333333333333,124.01882102272727,513.6666666666666,125.61194957386363,529.9166666666666C127.205078125,546.1666666666666,127.205078125,575.3333333333334,127.205078125,604.5C127.205078125,633.6666666666666,127.205078125,662.8333333333334,123.993408203125,679.2929851795831C120.78173828125,695.7526370258329,114.3583984375,699.5052740516658,111.146728515625,701.3815925645823L107.93505859375,703.2579110774988" style="stroke: rgb(0, 0, 0); stroke-width: 1px; fill: none; marker-end: url(&quot;#arrowhead&quot;);"/><path id="edge-stable_mamba_block[0][0]" class="edge-path" d="M53.6025390625,682L53.6025390625,683.6666666666666C53.6025390625,685.3333333333334,53.6025390625,688.6666666666666,56.814208984375,692.2096518462498C60.02587890625,695.7526370258329,66.44921875,699.5052740516658,69.660888671875,701.3815925645823L72.87255859375,703.2579110774988" style="stroke: rgb(0, 0, 0); stroke-width: 1px; fill: none; marker-end: url(&quot;#arrowhead&quot;);"/><path id="edge-add_1[0][0]" class="edge-path" d="M90.40380859375,725L90.40380859375,726.6666666666666C90.40380859375,728.3333333333334,90.40380859375,731.6666666666666,90.40380859375,735C90.40380859375,738.3333333333334,90.40380859375,741.6666666666666,90.40380859375,743.3333333333334L90.40380859375,745" style="stroke: rgb(0, 0, 0); stroke-width: 1px; fill: none; marker-end: url(&quot;#arrowhead&quot;);"/><path id="edge-layer_normalization_3[0][0]" class="edge-path" d="M90.40380859375,802L90.40380859375,803.6666666666666C90.40380859375,805.3333333333334,90.40380859375,808.6666666666666,90.40380859375,812C90.40380859375,815.3333333333334,90.40380859375,818.6666666666666,90.40380859375,820.3333333333334L90.40380859375,822" style="stroke: rgb(0, 0, 0); stroke-width: 1px; fill: none; marker-end: url(&quot;#arrowhead&quot;);"/><path id="edge-conv1d_8[0][0]" class="edge-path" d="M90.40380859375,902L90.40380859375,903.6666666666666C90.40380859375,905.3333333333334,90.40380859375,908.6666666666666,90.40380859375,912C90.40380859375,915.3333333333334,90.40380859375,918.6666666666666,90.40380859375,920.3333333333334L90.40380859375,922" style="stroke: rgb(0, 0, 0); stroke-width: 1px; fill: none; marker-end: url(&quot;#arrowhead&quot;);"/><path id="edge-max_pooling1d_8[0][0]" class="edge-path" d="M90.40380859375,945L90.40380859375,946.6666666666666C90.40380859375,948.3333333333334,90.40380859375,951.6666666666666,90.40380859375,955C90.40380859375,958.3333333333334,90.40380859375,961.6666666666666,90.40380859375,963.3333333333334L90.40380859375,965" style="stroke: rgb(0, 0, 0); stroke-width: 1px; fill: none; marker-end: url(&quot;#arrowhead&quot;);"/><path id="edge-flatten_2[0][0]" class="edge-path" d="M90.40380859375,988L90.40380859375,989.6666666666666C90.40380859375,991.3333333333334,90.40380859375,994.6666666666666,90.40380859375,998C90.40380859375,1001.3333333333334,90.40380859375,1004.6666666666666,90.40380859375,1006.3333333333334L90.40380859375,1008" style="stroke: rgb(0, 0, 0); stroke-width: 1px; fill: none; marker-end: url(&quot;#arrowhead&quot;);"/><path id="edge-dense_4[0][0]" class="edge-path" d="M90.40380859375,1088L90.40380859375,1089.6666666666667C90.40380859375,1091.3333333333333,90.40380859375,1094.6666666666667,90.40380859375,1098C90.40380859375,1101.3333333333333,90.40380859375,1104.6666666666667,90.40380859375,1106.3333333333333L90.40380859375,1108" style="stroke: rgb(0, 0, 0); stroke-width: 1px; fill: none; marker-end: url(&quot;#arrowhead&quot;);"/><path id="edge-dense_5[0][0]" class="edge-path" d="M90.40380859375,1165L90.40380859375,1166.6666666666667C90.40380859375,1168.3333333333333,90.40380859375,1171.6666666666667,90.40380859375,1175C90.40380859375,1178.3333333333333,90.40380859375,1181.6666666666667,90.40380859375,1183.3333333333333L90.40380859375,1185" style="stroke: rgb(0, 0, 0); stroke-width: 1px; fill: none; marker-end: url(&quot;#arrowhead&quot;);"/><path id="edge-lambda_2[0][0]" class="edge-path" d="M90.40380859375,1208L90.40380859375,1209.6666666666667C90.40380859375,1211.3333333333333,90.40380859375,1214.6666666666667,90.40380859375,1218C90.40380859375,1221.3333333333333,90.40380859375,1224.6666666666667,90.40380859375,1226.3333333333333L90.40380859375,1228" style="stroke: rgb(0, 0, 0); stroke-width: 1px; fill: none; marker-end: url(&quot;#arrowhead&quot;);"/></g><g id="edge-labels" class="edge-labels"><text class="edge-label" id="edge-label-edge-input_3[0][0]" transform="translate(95.40380859375,48)" style="opacity: 1; font-family: -apple-system, BlinkMacSystemFont, &quot;Segoe WPC&quot;, &quot;Segoe UI&quot;, Ubuntu, &quot;Droid Sans&quot;, sans-serif, &quot;PingFang SC&quot;; font-size: 10px;"><tspan xml:space="preserve" dy="1em" x="1">?×204×5</tspan></text></g><g id="nodes" class="nodes"><g id="input-name-input_3" class="node graph-input" transform="translate(65.466796875,0)" style=""><g class="node-item graph-item-input" transform="translate(0,0)"><path d="M5,0h39.8740234375a5,5 0 0 1 5,5v13a5,5 0 0 1 -5,5h-39.8740234375a5,5 0 0 1 -5,-5v-13a5,5 0 0 1 5,-5z" style="stroke: rgb(0, 0, 0); fill: rgb(238, 238, 238); stroke-width: 0;"/><text x="7" y="16" style="font-family: -apple-system, BlinkMacSystemFont, &quot;Segoe WPC&quot;, &quot;Segoe UI&quot;, Ubuntu, &quot;Droid Sans&quot;, sans-serif, &quot;PingFang SC&quot;; font-size: 11px; text-rendering: geometricprecision; user-select: none;">input_3</text><title>float32[?,204,5]</title></g><path class="node node-border" d="M5,0h39.8740234375a5,5 0 0 1 5,5v13a5,5 0 0 1 -5,5h-39.8740234375a5,5 0 0 1 -5,-5v-13a5,5 0 0 1 5,-5z" style="stroke: rgb(51, 51, 51); fill: none; stroke-width: 1px;"/></g><g id="node-name-conv1d_6" class="node graph-node" transform="translate(46.40380859375,87)" style=""><g class="node-item node-item-type node-item-type-layer" transform="translate(0,0)"><path d="M5,0h78a5,5 0 0 1 5,5v18a0,0 0 0 1 0,0h-88a0,0 0 0 1 0,0v-18a5,5 0 0 1 5,-5z" style="stroke: rgb(0, 0, 0); fill: rgb(51, 85, 136); stroke-width: 0;"/><text x="7" y="16" style="font-family: -apple-system, BlinkMacSystemFont, &quot;Segoe WPC&quot;, &quot;Segoe UI&quot;, Ubuntu, &quot;Droid Sans&quot;, sans-serif, &quot;PingFang SC&quot;; font-size: 11px; text-rendering: geometricprecision; user-select: none; fill: rgb(255, 255, 255);">Conv1D</text><title>conv1d_6</title></g><g class="node-argument-list" transform="translate(0,23)"><path d="M0,0h88a0,0 0 0 1 0,0v34a0,0 0 0 1 0,0h-88a0,0 0 0 1 0,0v-34a0,0 0 0 1 0,0z" style="stroke: rgb(0, 0, 0); fill: rgb(255, 255, 255); stroke-width: 0;"/><g class="node-argument"><rect rx="3" ry="3" x="3" y="3" width="82" height="14" style="fill: transparent;"/><text xml:space="preserve" x="6" y="14" style="font-family: -apple-system, BlinkMacSystemFont, &quot;Segoe WPC&quot;, &quot;Segoe UI&quot;, Ubuntu, &quot;Droid Sans&quot;, sans-serif, &quot;PingFang SC&quot;; font-size: 9px; font-weight: normal; text-rendering: geometricprecision; user-select: none;"><title>float32[5,5,64]</title><tspan style="font-weight: bold;">kernel</tspan><tspan>〈5×5×64〉</tspan></text></g><g class="node-argument"><rect rx="3" ry="3" x="3" y="17" width="82" height="14" style="fill: transparent;"/><text xml:space="preserve" x="6" y="28" style="font-family: -apple-system, BlinkMacSystemFont, &quot;Segoe WPC&quot;, &quot;Segoe UI&quot;, Ubuntu, &quot;Droid Sans&quot;, sans-serif, &quot;PingFang SC&quot;; font-size: 9px; font-weight: normal; text-rendering: geometricprecision; user-select: none;"><title>float32[64]</title><tspan style="font-weight: bold;">bias</tspan><tspan>〈64〉</tspan></text></g><line class="node" x1="0" x2="88" y1="0" y2="0" style="stroke: rgb(51, 51, 51); fill: none; stroke-width: 1px;"/></g><g class="node-item node-item-type node-item-type-activation" transform="translate(0,57)"><path d="M0,0h88a0,0 0 0 1 0,0v18a5,5 0 0 1 -5,5h-78a5,5 0 0 1 -5,-5v-18a0,0 0 0 1 0,0z" style="stroke: rgb(0, 0, 0); fill: rgb(112, 41, 33); stroke-width: 0;"/><text x="7" y="16" style="font-family: -apple-system, BlinkMacSystemFont, &quot;Segoe WPC&quot;, &quot;Segoe UI&quot;, Ubuntu, &quot;Droid Sans&quot;, sans-serif, &quot;PingFang SC&quot;; font-size: 11px; text-rendering: geometricprecision; user-select: none; fill: rgb(255, 255, 255);">Activation</text></g><line class="node" x1="0" x2="88" y1="57" y2="57" style="stroke: rgb(51, 51, 51); fill: none; stroke-width: 1px;"/><path class="node node-border" d="M5,0h78a5,5 0 0 1 5,5v70a5,5 0 0 1 -5,5h-78a5,5 0 0 1 -5,-5v-70a5,5 0 0 1 5,-5z" style="stroke: rgb(51, 51, 51); fill: none; stroke-width: 1px;"/></g><g id="node-name-max_pooling1d_6" class="node graph-node" transform="translate(47.840576171875,187)" style=""><g class="node-item node-item-type node-item-type-pool" transform="translate(0,0)"><path d="M5,0h75.12646484375a5,5 0 0 1 5,5v13a5,5 0 0 1 -5,5h-75.12646484375a5,5 0 0 1 -5,-5v-13a5,5 0 0 1 5,-5z" style="stroke: rgb(0, 0, 0); fill: rgb(51, 85, 51); stroke-width: 0;"/><text x="7" y="16" style="font-family: -apple-system, BlinkMacSystemFont, &quot;Segoe WPC&quot;, &quot;Segoe UI&quot;, Ubuntu, &quot;Droid Sans&quot;, sans-serif, &quot;PingFang SC&quot;; font-size: 11px; text-rendering: geometricprecision; user-select: none; fill: rgb(255, 255, 255);">MaxPooling1D</text><title>max_pooling1d_6</title></g><path class="node node-border" d="M5,0h75.12646484375a5,5 0 0 1 5,5v13a5,5 0 0 1 -5,5h-75.12646484375a5,5 0 0 1 -5,-5v-13a5,5 0 0 1 5,-5z" style="stroke: rgb(51, 51, 51); fill: none; stroke-width: 1px;"/></g><g id="node-name-layer_normalization_1" class="node graph-node" transform="translate(36.29443359375,230)" style=""><g class="node-item node-item-type node-item-type-normalization" transform="translate(0,0)"><path d="M5,0h98.21875a5,5 0 0 1 5,5v18a0,0 0 0 1 0,0h-108.21875a0,0 0 0 1 0,0v-18a5,5 0 0 1 5,-5z" style="stroke: rgb(0, 0, 0); fill: rgb(51, 85, 68); stroke-width: 0;"/><text x="7" y="16" style="font-family: -apple-system, BlinkMacSystemFont, &quot;Segoe WPC&quot;, &quot;Segoe UI&quot;, Ubuntu, &quot;Droid Sans&quot;, sans-serif, &quot;PingFang SC&quot;; font-size: 11px; text-rendering: geometricprecision; user-select: none; fill: rgb(255, 255, 255);">LayerNormalization</text><title>layer_normalization_1</title></g><g class="node-argument-list" transform="translate(0,23)"><path d="M0,0h108.21875a0,0 0 0 1 0,0v29a5,5 0 0 1 -5,5h-98.21875a5,5 0 0 1 -5,-5v-29a0,0 0 0 1 0,0z" style="stroke: rgb(0, 0, 0); fill: rgb(255, 255, 255); stroke-width: 0;"/><g class="node-argument"><rect rx="3" ry="3" x="3" y="3" width="102.21875" height="14" style="fill: transparent;"/><text xml:space="preserve" x="6" y="14" style="font-family: -apple-system, BlinkMacSystemFont, &quot;Segoe WPC&quot;, &quot;Segoe UI&quot;, Ubuntu, &quot;Droid Sans&quot;, sans-serif, &quot;PingFang SC&quot;; font-size: 9px; font-weight: normal; text-rendering: geometricprecision; user-select: none;"><title>float32[64]</title><tspan style="font-weight: bold;">gamma</tspan><tspan>〈64〉</tspan></text></g><g class="node-argument"><rect rx="3" ry="3" x="3" y="17" width="102.21875" height="14" style="fill: transparent;"/><text xml:space="preserve" x="6" y="28" style="font-family: -apple-system, BlinkMacSystemFont, &quot;Segoe WPC&quot;, &quot;Segoe UI&quot;, Ubuntu, &quot;Droid Sans&quot;, sans-serif, &quot;PingFang SC&quot;; font-size: 9px; font-weight: normal; text-rendering: geometricprecision; user-select: none;"><title>float32[64]</title><tspan style="font-weight: bold;">beta</tspan><tspan>〈64〉</tspan></text></g><line class="node" x1="0" x2="108.21875" y1="0" y2="0" style="stroke: rgb(51, 51, 51); fill: none; stroke-width: 1px;"/></g><path class="node node-border" d="M5,0h98.21875a5,5 0 0 1 5,5v47a5,5 0 0 1 -5,5h-98.21875a5,5 0 0 1 -5,-5v-47a5,5 0 0 1 5,-5z" style="stroke: rgb(51, 51, 51); fill: none; stroke-width: 1px;"/></g><g id="node-name-conv1d_7" class="node graph-node" transform="translate(41.55224609375,307)" style=""><g class="node-item node-item-type node-item-type-layer" transform="translate(0,0)"><path d="M5,0h87.703125a5,5 0 0 1 5,5v18a0,0 0 0 1 0,0h-97.703125a0,0 0 0 1 0,0v-18a5,5 0 0 1 5,-5z" style="stroke: rgb(0, 0, 0); fill: rgb(51, 85, 136); stroke-width: 0;"/><text x="7" y="16" style="font-family: -apple-system, BlinkMacSystemFont, &quot;Segoe WPC&quot;, &quot;Segoe UI&quot;, Ubuntu, &quot;Droid Sans&quot;, sans-serif, &quot;PingFang SC&quot;; font-size: 11px; text-rendering: geometricprecision; user-select: none; fill: rgb(255, 255, 255);">Conv1D</text><title>conv1d_7</title></g><g class="node-argument-list" transform="translate(0,23)"><path d="M0,0h97.703125a0,0 0 0 1 0,0v34a0,0 0 0 1 0,0h-97.703125a0,0 0 0 1 0,0v-34a0,0 0 0 1 0,0z" style="stroke: rgb(0, 0, 0); fill: rgb(255, 255, 255); stroke-width: 0;"/><g class="node-argument"><rect rx="3" ry="3" x="3" y="3" width="91.703125" height="14" style="fill: transparent;"/><text xml:space="preserve" x="6" y="14" style="font-family: -apple-system, BlinkMacSystemFont, &quot;Segoe WPC&quot;, &quot;Segoe UI&quot;, Ubuntu, &quot;Droid Sans&quot;, sans-serif, &quot;PingFang SC&quot;; font-size: 9px; font-weight: normal; text-rendering: geometricprecision; user-select: none;"><title>float32[5,64,128]</title><tspan style="font-weight: bold;">kernel</tspan><tspan>〈5×64×128〉</tspan></text></g><g class="node-argument"><rect rx="3" ry="3" x="3" y="17" width="91.703125" height="14" style="fill: transparent;"/><text xml:space="preserve" x="6" y="28" style="font-family: -apple-system, BlinkMacSystemFont, &quot;Segoe WPC&quot;, &quot;Segoe UI&quot;, Ubuntu, &quot;Droid Sans&quot;, sans-serif, &quot;PingFang SC&quot;; font-size: 9px; font-weight: normal; text-rendering: geometricprecision; user-select: none;"><title>float32[128]</title><tspan style="font-weight: bold;">bias</tspan><tspan>〈128〉</tspan></text></g><line class="node" x1="0" x2="97.703125" y1="0" y2="0" style="stroke: rgb(51, 51, 51); fill: none; stroke-width: 1px;"/></g><g class="node-item node-item-type node-item-type-activation" transform="translate(0,57)"><path d="M0,0h97.703125a0,0 0 0 1 0,0v18a5,5 0 0 1 -5,5h-87.703125a5,5 0 0 1 -5,-5v-18a0,0 0 0 1 0,0z" style="stroke: rgb(0, 0, 0); fill: rgb(112, 41, 33); stroke-width: 0;"/><text x="7" y="16" style="font-family: -apple-system, BlinkMacSystemFont, &quot;Segoe WPC&quot;, &quot;Segoe UI&quot;, Ubuntu, &quot;Droid Sans&quot;, sans-serif, &quot;PingFang SC&quot;; font-size: 11px; text-rendering: geometricprecision; user-select: none; fill: rgb(255, 255, 255);">Activation</text></g><line class="node" x1="0" x2="97.703125" y1="57" y2="57" style="stroke: rgb(51, 51, 51); fill: none; stroke-width: 1px;"/><path class="node node-border" d="M5,0h87.703125a5,5 0 0 1 5,5v70a5,5 0 0 1 -5,5h-87.703125a5,5 0 0 1 -5,-5v-70a5,5 0 0 1 5,-5z" style="stroke: rgb(51, 51, 51); fill: none; stroke-width: 1px;"/></g><g id="node-name-max_pooling1d_7" class="node graph-node" transform="translate(47.840576171875,407)" style=""><g class="node-item node-item-type node-item-type-pool" transform="translate(0,0)"><path d="M5,0h75.12646484375a5,5 0 0 1 5,5v13a5,5 0 0 1 -5,5h-75.12646484375a5,5 0 0 1 -5,-5v-13a5,5 0 0 1 5,-5z" style="stroke: rgb(0, 0, 0); fill: rgb(51, 85, 51); stroke-width: 0;"/><text x="7" y="16" style="font-family: -apple-system, BlinkMacSystemFont, &quot;Segoe WPC&quot;, &quot;Segoe UI&quot;, Ubuntu, &quot;Droid Sans&quot;, sans-serif, &quot;PingFang SC&quot;; font-size: 11px; text-rendering: geometricprecision; user-select: none; fill: rgb(255, 255, 255);">MaxPooling1D</text><title>max_pooling1d_7</title></g><path class="node node-border" d="M5,0h75.12646484375a5,5 0 0 1 5,5v13a5,5 0 0 1 -5,5h-75.12646484375a5,5 0 0 1 -5,-5v-13a5,5 0 0 1 5,-5z" style="stroke: rgb(51, 51, 51); fill: none; stroke-width: 1px;"/></g><g id="node-name-layer_normalization_2" class="node graph-node" transform="translate(36.29443359375,450)" style=""><g class="node-item node-item-type node-item-type-normalization" transform="translate(0,0)"><path d="M5,0h98.21875a5,5 0 0 1 5,5v18a0,0 0 0 1 0,0h-108.21875a0,0 0 0 1 0,0v-18a5,5 0 0 1 5,-5z" style="stroke: rgb(0, 0, 0); fill: rgb(51, 85, 68); stroke-width: 0;"/><text x="7" y="16" style="font-family: -apple-system, BlinkMacSystemFont, &quot;Segoe WPC&quot;, &quot;Segoe UI&quot;, Ubuntu, &quot;Droid Sans&quot;, sans-serif, &quot;PingFang SC&quot;; font-size: 11px; text-rendering: geometricprecision; user-select: none; fill: rgb(255, 255, 255);">LayerNormalization</text><title>layer_normalization_2</title></g><g class="node-argument-list" transform="translate(0,23)"><path d="M0,0h108.21875a0,0 0 0 1 0,0v29a5,5 0 0 1 -5,5h-98.21875a5,5 0 0 1 -5,-5v-29a0,0 0 0 1 0,0z" style="stroke: rgb(0, 0, 0); fill: rgb(255, 255, 255); stroke-width: 0;"/><g class="node-argument"><rect rx="3" ry="3" x="3" y="3" width="102.21875" height="14" style="fill: transparent;"/><text xml:space="preserve" x="6" y="14" style="font-family: -apple-system, BlinkMacSystemFont, &quot;Segoe WPC&quot;, &quot;Segoe UI&quot;, Ubuntu, &quot;Droid Sans&quot;, sans-serif, &quot;PingFang SC&quot;; font-size: 9px; font-weight: normal; text-rendering: geometricprecision; user-select: none;"><title>float32[128]</title><tspan style="font-weight: bold;">gamma</tspan><tspan>〈128〉</tspan></text></g><g class="node-argument"><rect rx="3" ry="3" x="3" y="17" width="102.21875" height="14" style="fill: transparent;"/><text xml:space="preserve" x="6" y="28" style="font-family: -apple-system, BlinkMacSystemFont, &quot;Segoe WPC&quot;, &quot;Segoe UI&quot;, Ubuntu, &quot;Droid Sans&quot;, sans-serif, &quot;PingFang SC&quot;; font-size: 9px; font-weight: normal; text-rendering: geometricprecision; user-select: none;"><title>float32[128]</title><tspan style="font-weight: bold;">beta</tspan><tspan>〈128〉</tspan></text></g><line class="node" x1="0" x2="108.21875" y1="0" y2="0" style="stroke: rgb(51, 51, 51); fill: none; stroke-width: 1px;"/></g><path class="node node-border" d="M5,0h98.21875a5,5 0 0 1 5,5v47a5,5 0 0 1 -5,5h-98.21875a5,5 0 0 1 -5,-5v-47a5,5 0 0 1 5,-5z" style="stroke: rgb(51, 51, 51); fill: none; stroke-width: 1px;"/></g><g id="node-name-stable_mamba_block" class="node graph-node" transform="translate(0,527)" style=""><g class="node-item node-item-type" transform="translate(0,0)"><path d="M5,0h97.205078125a5,5 0 0 1 5,5v18a0,0 0 0 1 0,0h-107.205078125a0,0 0 0 1 0,0v-18a5,5 0 0 1 5,-5z" style="stroke: rgb(0, 0, 0); fill: rgb(51, 51, 51); stroke-width: 0;"/><text x="7" y="16" style="font-family: -apple-system, BlinkMacSystemFont, &quot;Segoe WPC&quot;, &quot;Segoe UI&quot;, Ubuntu, &quot;Droid Sans&quot;, sans-serif, &quot;PingFang SC&quot;; font-size: 11px; text-rendering: geometricprecision; user-select: none; fill: rgb(255, 255, 255);">StableMambaBlock</text><title>stable_mamba_block</title></g><g class="node-argument-list" transform="translate(0,23)"><path d="M0,0h107.205078125a0,0 0 0 1 0,0v127a5,5 0 0 1 -5,5h-97.205078125a5,5 0 0 1 -5,-5v-127a0,0 0 0 1 0,0z" style="stroke: rgb(0, 0, 0); fill: rgb(255, 255, 255); stroke-width: 0;"/><g class="node-argument"><rect rx="3" ry="3" x="3" y="3" width="101.205078125" height="14" style="fill: transparent;"/><text xml:space="preserve" x="6" y="14" style="font-family: -apple-system, BlinkMacSystemFont, &quot;Segoe WPC&quot;, &quot;Segoe UI&quot;, Ubuntu, &quot;Droid Sans&quot;, sans-serif, &quot;PingFang SC&quot;; font-size: 9px; font-weight: normal; text-rendering: geometricprecision; user-select: none;"><title>float32[256,16]</title><tspan style="font-weight: bold;">A</tspan><tspan>〈256×16〉</tspan></text></g><g class="node-argument"><rect rx="3" ry="3" x="3" y="17" width="101.205078125" height="14" style="fill: transparent;"/><text xml:space="preserve" x="6" y="28" style="font-family: -apple-system, BlinkMacSystemFont, &quot;Segoe WPC&quot;, &quot;Segoe UI&quot;, Ubuntu, &quot;Droid Sans&quot;, sans-serif, &quot;PingFang SC&quot;; font-size: 9px; font-weight: normal; text-rendering: geometricprecision; user-select: none;"><title>float32[256]</title><tspan style="font-weight: bold;">D</tspan><tspan>〈256〉</tspan></text></g><g class="node-argument"><rect rx="3" ry="3" x="3" y="31" width="101.205078125" height="14" style="fill: transparent;"/><text xml:space="preserve" x="6" y="42" style="font-family: -apple-system, BlinkMacSystemFont, &quot;Segoe WPC&quot;, &quot;Segoe UI&quot;, Ubuntu, &quot;Droid Sans&quot;, sans-serif, &quot;PingFang SC&quot;; font-size: 9px; font-weight: normal; text-rendering: geometricprecision; user-select: none;"><title>float32[128,512]</title><tspan style="font-weight: bold;">kernel</tspan><tspan>〈128×512〉</tspan></text></g><g class="node-argument"><rect rx="3" ry="3" x="3" y="45" width="101.205078125" height="14" style="fill: transparent;"/><text xml:space="preserve" x="6" y="56" style="font-family: -apple-system, BlinkMacSystemFont, &quot;Segoe WPC&quot;, &quot;Segoe UI&quot;, Ubuntu, &quot;Droid Sans&quot;, sans-serif, &quot;PingFang SC&quot;; font-size: 9px; font-weight: normal; text-rendering: geometricprecision; user-select: none;"><title>float32[4,1,256]</title><tspan style="font-weight: bold;">kernel</tspan><tspan>〈4×1×256〉</tspan></text></g><g class="node-argument"><rect rx="3" ry="3" x="3" y="59" width="101.205078125" height="14" style="fill: transparent;"/><text xml:space="preserve" x="6" y="70" style="font-family: -apple-system, BlinkMacSystemFont, &quot;Segoe WPC&quot;, &quot;Segoe UI&quot;, Ubuntu, &quot;Droid Sans&quot;, sans-serif, &quot;PingFang SC&quot;; font-size: 9px; font-weight: normal; text-rendering: geometricprecision; user-select: none;"><title>float32[256]</title><tspan style="font-weight: bold;">bias</tspan><tspan>〈256〉</tspan></text></g><g class="node-argument"><rect rx="3" ry="3" x="3" y="73" width="101.205078125" height="14" style="fill: transparent;"/><text xml:space="preserve" x="6" y="84" style="font-family: -apple-system, BlinkMacSystemFont, &quot;Segoe WPC&quot;, &quot;Segoe UI&quot;, Ubuntu, &quot;Droid Sans&quot;, sans-serif, &quot;PingFang SC&quot;; font-size: 9px; font-weight: normal; text-rendering: geometricprecision; user-select: none;"><title>float32[256,288]</title><tspan style="font-weight: bold;">kernel</tspan><tspan>〈256×288〉</tspan></text></g><g class="node-argument"><rect rx="3" ry="3" x="3" y="87" width="101.205078125" height="14" style="fill: transparent;"/><text xml:space="preserve" x="6" y="98" style="font-family: -apple-system, BlinkMacSystemFont, &quot;Segoe WPC&quot;, &quot;Segoe UI&quot;, Ubuntu, &quot;Droid Sans&quot;, sans-serif, &quot;PingFang SC&quot;; font-size: 9px; font-weight: normal; text-rendering: geometricprecision; user-select: none;"><title>float32[256,256]</title><tspan style="font-weight: bold;">kernel</tspan><tspan>〈256×256〉</tspan></text></g><g class="node-argument"><rect rx="3" ry="3" x="3" y="101" width="101.205078125" height="14" style="fill: transparent;"/><text xml:space="preserve" x="6" y="112" style="font-family: -apple-system, BlinkMacSystemFont, &quot;Segoe WPC&quot;, &quot;Segoe UI&quot;, Ubuntu, &quot;Droid Sans&quot;, sans-serif, &quot;PingFang SC&quot;; font-size: 9px; font-weight: normal; text-rendering: geometricprecision; user-select: none;"><title>float32[256]</title><tspan style="font-weight: bold;">bias</tspan><tspan>〈256〉</tspan></text></g><g class="node-argument"><rect rx="3" ry="3" x="3" y="115" width="101.205078125" height="14" style="fill: transparent;"/><text xml:space="preserve" x="6" y="126" style="font-family: -apple-system, BlinkMacSystemFont, &quot;Segoe WPC&quot;, &quot;Segoe UI&quot;, Ubuntu, &quot;Droid Sans&quot;, sans-serif, &quot;PingFang SC&quot;; font-size: 9px; font-weight: normal; text-rendering: geometricprecision; user-select: none;"><title>float32[256,128]</title><tspan style="font-weight: bold;">kernel</tspan><tspan>〈256×128〉</tspan></text></g><line class="node" x1="0" x2="107.205078125" y1="0" y2="0" style="stroke: rgb(51, 51, 51); fill: none; stroke-width: 1px;"/></g><path class="node node-border" d="M5,0h97.205078125a5,5 0 0 1 5,5v145a5,5 0 0 1 -5,5h-97.205078125a5,5 0 0 1 -5,-5v-145a5,5 0 0 1 5,-5z" style="stroke: rgb(51, 51, 51); fill: none; stroke-width: 1px;"/></g><g id="node-name-add_1" class="node graph-node" transform="translate(72.87255859375,702)" style=""><g class="node-item node-item-type" transform="translate(0,0)"><path d="M5,0h25.0625a5,5 0 0 1 5,5v13a5,5 0 0 1 -5,5h-25.0625a5,5 0 0 1 -5,-5v-13a5,5 0 0 1 5,-5z" style="stroke: rgb(0, 0, 0); fill: rgb(51, 51, 51); stroke-width: 0;"/><text x="7" y="16" style="font-family: -apple-system, BlinkMacSystemFont, &quot;Segoe WPC&quot;, &quot;Segoe UI&quot;, Ubuntu, &quot;Droid Sans&quot;, sans-serif, &quot;PingFang SC&quot;; font-size: 11px; text-rendering: geometricprecision; user-select: none; fill: rgb(255, 255, 255);">Add</text><title>add_1</title></g><path class="node node-border" d="M5,0h25.0625a5,5 0 0 1 5,5v13a5,5 0 0 1 -5,5h-25.0625a5,5 0 0 1 -5,-5v-13a5,5 0 0 1 5,-5z" style="stroke: rgb(51, 51, 51); fill: none; stroke-width: 1px;"/></g><g id="node-name-layer_normalization_3" class="node graph-node" transform="translate(36.29443359375,745)" style=""><g class="node-item node-item-type node-item-type-normalization" transform="translate(0,0)"><path d="M5,0h98.21875a5,5 0 0 1 5,5v18a0,0 0 0 1 0,0h-108.21875a0,0 0 0 1 0,0v-18a5,5 0 0 1 5,-5z" style="stroke: rgb(0, 0, 0); fill: rgb(51, 85, 68); stroke-width: 0;"/><text x="7" y="16" style="font-family: -apple-system, BlinkMacSystemFont, &quot;Segoe WPC&quot;, &quot;Segoe UI&quot;, Ubuntu, &quot;Droid Sans&quot;, sans-serif, &quot;PingFang SC&quot;; font-size: 11px; text-rendering: geometricprecision; user-select: none; fill: rgb(255, 255, 255);">LayerNormalization</text><title>layer_normalization_3</title></g><g class="node-argument-list" transform="translate(0,23)"><path d="M0,0h108.21875a0,0 0 0 1 0,0v29a5,5 0 0 1 -5,5h-98.21875a5,5 0 0 1 -5,-5v-29a0,0 0 0 1 0,0z" style="stroke: rgb(0, 0, 0); fill: rgb(255, 255, 255); stroke-width: 0;"/><g class="node-argument"><rect rx="3" ry="3" x="3" y="3" width="102.21875" height="14" style="fill: transparent;"/><text xml:space="preserve" x="6" y="14" style="font-family: -apple-system, BlinkMacSystemFont, &quot;Segoe WPC&quot;, &quot;Segoe UI&quot;, Ubuntu, &quot;Droid Sans&quot;, sans-serif, &quot;PingFang SC&quot;; font-size: 9px; font-weight: normal; text-rendering: geometricprecision; user-select: none;"><title>float32[128]</title><tspan style="font-weight: bold;">gamma</tspan><tspan>〈128〉</tspan></text></g><g class="node-argument"><rect rx="3" ry="3" x="3" y="17" width="102.21875" height="14" style="fill: transparent;"/><text xml:space="preserve" x="6" y="28" style="font-family: -apple-system, BlinkMacSystemFont, &quot;Segoe WPC&quot;, &quot;Segoe UI&quot;, Ubuntu, &quot;Droid Sans&quot;, sans-serif, &quot;PingFang SC&quot;; font-size: 9px; font-weight: normal; text-rendering: geometricprecision; user-select: none;"><title>float32[128]</title><tspan style="font-weight: bold;">beta</tspan><tspan>〈128〉</tspan></text></g><line class="node" x1="0" x2="108.21875" y1="0" y2="0" style="stroke: rgb(51, 51, 51); fill: none; stroke-width: 1px;"/></g><path class="node node-border" d="M5,0h98.21875a5,5 0 0 1 5,5v47a5,5 0 0 1 -5,5h-98.21875a5,5 0 0 1 -5,-5v-47a5,5 0 0 1 5,-5z" style="stroke: rgb(51, 51, 51); fill: none; stroke-width: 1px;"/></g><g id="node-name-conv1d_8" class="node graph-node" transform="translate(39.13037109375,822)" style=""><g class="node-item node-item-type node-item-type-layer" transform="translate(0,0)"><path d="M5,0h92.546875a5,5 0 0 1 5,5v18a0,0 0 0 1 0,0h-102.546875a0,0 0 0 1 0,0v-18a5,5 0 0 1 5,-5z" style="stroke: rgb(0, 0, 0); fill: rgb(51, 85, 136); stroke-width: 0;"/><text x="7" y="16" style="font-family: -apple-system, BlinkMacSystemFont, &quot;Segoe WPC&quot;, &quot;Segoe UI&quot;, Ubuntu, &quot;Droid Sans&quot;, sans-serif, &quot;PingFang SC&quot;; font-size: 11px; text-rendering: geometricprecision; user-select: none; fill: rgb(255, 255, 255);">Conv1D</text><title>conv1d_8</title></g><g class="node-argument-list" transform="translate(0,23)"><path d="M0,0h102.546875a0,0 0 0 1 0,0v34a0,0 0 0 1 0,0h-102.546875a0,0 0 0 1 0,0v-34a0,0 0 0 1 0,0z" style="stroke: rgb(0, 0, 0); fill: rgb(255, 255, 255); stroke-width: 0;"/><g class="node-argument"><rect rx="3" ry="3" x="3" y="3" width="96.546875" height="14" style="fill: transparent;"/><text xml:space="preserve" x="6" y="14" style="font-family: -apple-system, BlinkMacSystemFont, &quot;Segoe WPC&quot;, &quot;Segoe UI&quot;, Ubuntu, &quot;Droid Sans&quot;, sans-serif, &quot;PingFang SC&quot;; font-size: 9px; font-weight: normal; text-rendering: geometricprecision; user-select: none;"><title>float32[3,128,128]</title><tspan style="font-weight: bold;">kernel</tspan><tspan>〈3×128×128〉</tspan></text></g><g class="node-argument"><rect rx="3" ry="3" x="3" y="17" width="96.546875" height="14" style="fill: transparent;"/><text xml:space="preserve" x="6" y="28" style="font-family: -apple-system, BlinkMacSystemFont, &quot;Segoe WPC&quot;, &quot;Segoe UI&quot;, Ubuntu, &quot;Droid Sans&quot;, sans-serif, &quot;PingFang SC&quot;; font-size: 9px; font-weight: normal; text-rendering: geometricprecision; user-select: none;"><title>float32[128]</title><tspan style="font-weight: bold;">bias</tspan><tspan>〈128〉</tspan></text></g><line class="node" x1="0" x2="102.546875" y1="0" y2="0" style="stroke: rgb(51, 51, 51); fill: none; stroke-width: 1px;"/></g><g class="node-item node-item-type node-item-type-activation" transform="translate(0,57)"><path d="M0,0h102.546875a0,0 0 0 1 0,0v18a5,5 0 0 1 -5,5h-92.546875a5,5 0 0 1 -5,-5v-18a0,0 0 0 1 0,0z" style="stroke: rgb(0, 0, 0); fill: rgb(112, 41, 33); stroke-width: 0;"/><text x="7" y="16" style="font-family: -apple-system, BlinkMacSystemFont, &quot;Segoe WPC&quot;, &quot;Segoe UI&quot;, Ubuntu, &quot;Droid Sans&quot;, sans-serif, &quot;PingFang SC&quot;; font-size: 11px; text-rendering: geometricprecision; user-select: none; fill: rgb(255, 255, 255);">Activation</text></g><line class="node" x1="0" x2="102.546875" y1="57" y2="57" style="stroke: rgb(51, 51, 51); fill: none; stroke-width: 1px;"/><path class="node node-border" d="M5,0h92.546875a5,5 0 0 1 5,5v70a5,5 0 0 1 -5,5h-92.546875a5,5 0 0 1 -5,-5v-70a5,5 0 0 1 5,-5z" style="stroke: rgb(51, 51, 51); fill: none; stroke-width: 1px;"/></g><g id="node-name-max_pooling1d_8" class="node graph-node" transform="translate(47.840576171875,922)" style=""><g class="node-item node-item-type node-item-type-pool" transform="translate(0,0)"><path d="M5,0h75.12646484375a5,5 0 0 1 5,5v13a5,5 0 0 1 -5,5h-75.12646484375a5,5 0 0 1 -5,-5v-13a5,5 0 0 1 5,-5z" style="stroke: rgb(0, 0, 0); fill: rgb(51, 85, 51); stroke-width: 0;"/><text x="7" y="16" style="font-family: -apple-system, BlinkMacSystemFont, &quot;Segoe WPC&quot;, &quot;Segoe UI&quot;, Ubuntu, &quot;Droid Sans&quot;, sans-serif, &quot;PingFang SC&quot;; font-size: 11px; text-rendering: geometricprecision; user-select: none; fill: rgb(255, 255, 255);">MaxPooling1D</text><title>max_pooling1d_8</title></g><path class="node node-border" d="M5,0h75.12646484375a5,5 0 0 1 5,5v13a5,5 0 0 1 -5,5h-75.12646484375a5,5 0 0 1 -5,-5v-13a5,5 0 0 1 5,-5z" style="stroke: rgb(51, 51, 51); fill: none; stroke-width: 1px;"/></g><g id="node-name-flatten_2" class="node graph-node" transform="translate(66.86474609375,965)" style=""><g class="node-item node-item-type node-item-type-shape" transform="translate(0,0)"><path d="M5,0h37.078125a5,5 0 0 1 5,5v13a5,5 0 0 1 -5,5h-37.078125a5,5 0 0 1 -5,-5v-13a5,5 0 0 1 5,-5z" style="stroke: rgb(0, 0, 0); fill: rgb(108, 79, 71); stroke-width: 0;"/><text x="7" y="16" style="font-family: -apple-system, BlinkMacSystemFont, &quot;Segoe WPC&quot;, &quot;Segoe UI&quot;, Ubuntu, &quot;Droid Sans&quot;, sans-serif, &quot;PingFang SC&quot;; font-size: 11px; text-rendering: geometricprecision; user-select: none; fill: rgb(255, 255, 255);">Flatten</text><title>flatten_2</title></g><path class="node node-border" d="M5,0h37.078125a5,5 0 0 1 5,5v13a5,5 0 0 1 -5,5h-37.078125a5,5 0 0 1 -5,-5v-13a5,5 0 0 1 5,-5z" style="stroke: rgb(51, 51, 51); fill: none; stroke-width: 1px;"/></g><g id="node-name-dense_4" class="node graph-node" transform="translate(44.63037109375,1008)" style=""><g class="node-item node-item-type node-item-type-layer" transform="translate(0,0)"><path d="M5,0h81.546875a5,5 0 0 1 5,5v18a0,0 0 0 1 0,0h-91.546875a0,0 0 0 1 0,0v-18a5,5 0 0 1 5,-5z" style="stroke: rgb(0, 0, 0); fill: rgb(51, 85, 136); stroke-width: 0;"/><text x="7" y="16" style="font-family: -apple-system, BlinkMacSystemFont, &quot;Segoe WPC&quot;, &quot;Segoe UI&quot;, Ubuntu, &quot;Droid Sans&quot;, sans-serif, &quot;PingFang SC&quot;; font-size: 11px; text-rendering: geometricprecision; user-select: none; fill: rgb(255, 255, 255);">Dense</text><title>dense_4</title></g><g class="node-argument-list" transform="translate(0,23)"><path d="M0,0h91.546875a0,0 0 0 1 0,0v34a0,0 0 0 1 0,0h-91.546875a0,0 0 0 1 0,0v-34a0,0 0 0 1 0,0z" style="stroke: rgb(0, 0, 0); fill: rgb(255, 255, 255); stroke-width: 0;"/><g class="node-argument"><rect rx="3" ry="3" x="3" y="3" width="85.546875" height="14" style="fill: transparent;"/><text xml:space="preserve" x="6" y="14" style="font-family: -apple-system, BlinkMacSystemFont, &quot;Segoe WPC&quot;, &quot;Segoe UI&quot;, Ubuntu, &quot;Droid Sans&quot;, sans-serif, &quot;PingFang SC&quot;; font-size: 9px; font-weight: normal; text-rendering: geometricprecision; user-select: none;"><title>float32[3200,64]</title><tspan style="font-weight: bold;">kernel</tspan><tspan>〈3200×64〉</tspan></text></g><g class="node-argument"><rect rx="3" ry="3" x="3" y="17" width="85.546875" height="14" style="fill: transparent;"/><text xml:space="preserve" x="6" y="28" style="font-family: -apple-system, BlinkMacSystemFont, &quot;Segoe WPC&quot;, &quot;Segoe UI&quot;, Ubuntu, &quot;Droid Sans&quot;, sans-serif, &quot;PingFang SC&quot;; font-size: 9px; font-weight: normal; text-rendering: geometricprecision; user-select: none;"><title>float32[64]</title><tspan style="font-weight: bold;">bias</tspan><tspan>〈64〉</tspan></text></g><line class="node" x1="0" x2="91.546875" y1="0" y2="0" style="stroke: rgb(51, 51, 51); fill: none; stroke-width: 1px;"/></g><g class="node-item node-item-type node-item-type-activation" transform="translate(0,57)"><path d="M0,0h91.546875a0,0 0 0 1 0,0v18a5,5 0 0 1 -5,5h-81.546875a5,5 0 0 1 -5,-5v-18a0,0 0 0 1 0,0z" style="stroke: rgb(0, 0, 0); fill: rgb(112, 41, 33); stroke-width: 0;"/><text x="7" y="16" style="font-family: -apple-system, BlinkMacSystemFont, &quot;Segoe WPC&quot;, &quot;Segoe UI&quot;, Ubuntu, &quot;Droid Sans&quot;, sans-serif, &quot;PingFang SC&quot;; font-size: 11px; text-rendering: geometricprecision; user-select: none; fill: rgb(255, 255, 255);">Activation</text></g><line class="node" x1="0" x2="91.546875" y1="57" y2="57" style="stroke: rgb(51, 51, 51); fill: none; stroke-width: 1px;"/><path class="node node-border" d="M5,0h81.546875a5,5 0 0 1 5,5v70a5,5 0 0 1 -5,5h-81.546875a5,5 0 0 1 -5,-5v-70a5,5 0 0 1 5,-5z" style="stroke: rgb(51, 51, 51); fill: none; stroke-width: 1px;"/></g><g id="node-name-dense_5" class="node graph-node" transform="translate(49.48193359375,1108)" style=""><g class="node-item node-item-type node-item-type-layer" transform="translate(0,0)"><path d="M5,0h71.84375a5,5 0 0 1 5,5v18a0,0 0 0 1 0,0h-81.84375a0,0 0 0 1 0,0v-18a5,5 0 0 1 5,-5z" style="stroke: rgb(0, 0, 0); fill: rgb(51, 85, 136); stroke-width: 0;"/><text x="7" y="16" style="font-family: -apple-system, BlinkMacSystemFont, &quot;Segoe WPC&quot;, &quot;Segoe UI&quot;, Ubuntu, &quot;Droid Sans&quot;, sans-serif, &quot;PingFang SC&quot;; font-size: 11px; text-rendering: geometricprecision; user-select: none; fill: rgb(255, 255, 255);">Dense</text><title>dense_5</title></g><g class="node-argument-list" transform="translate(0,23)"><path d="M0,0h81.84375a0,0 0 0 1 0,0v29a5,5 0 0 1 -5,5h-71.84375a5,5 0 0 1 -5,-5v-29a0,0 0 0 1 0,0z" style="stroke: rgb(0, 0, 0); fill: rgb(255, 255, 255); stroke-width: 0;"/><g class="node-argument"><rect rx="3" ry="3" x="3" y="3" width="75.84375" height="14" style="fill: transparent;"/><text xml:space="preserve" x="6" y="14" style="font-family: -apple-system, BlinkMacSystemFont, &quot;Segoe WPC&quot;, &quot;Segoe UI&quot;, Ubuntu, &quot;Droid Sans&quot;, sans-serif, &quot;PingFang SC&quot;; font-size: 9px; font-weight: normal; text-rendering: geometricprecision; user-select: none;"><title>float32[64,32]</title><tspan style="font-weight: bold;">kernel</tspan><tspan>〈64×32〉</tspan></text></g><g class="node-argument"><rect rx="3" ry="3" x="3" y="17" width="75.84375" height="14" style="fill: transparent;"/><text xml:space="preserve" x="6" y="28" style="font-family: -apple-system, BlinkMacSystemFont, &quot;Segoe WPC&quot;, &quot;Segoe UI&quot;, Ubuntu, &quot;Droid Sans&quot;, sans-serif, &quot;PingFang SC&quot;; font-size: 9px; font-weight: normal; text-rendering: geometricprecision; user-select: none;"><title>float32[32]</title><tspan style="font-weight: bold;">bias</tspan><tspan>〈32〉</tspan></text></g><line class="node" x1="0" x2="81.84375" y1="0" y2="0" style="stroke: rgb(51, 51, 51); fill: none; stroke-width: 1px;"/></g><path class="node node-border" d="M5,0h71.84375a5,5 0 0 1 5,5v47a5,5 0 0 1 -5,5h-71.84375a5,5 0 0 1 -5,-5v-47a5,5 0 0 1 5,-5z" style="stroke: rgb(51, 51, 51); fill: none; stroke-width: 1px;"/></g><g id="node-name-lambda_2" class="node graph-node" transform="translate(63.80712890625,1185)" style=""><g class="node-item node-item-type" transform="translate(0,0)"><path d="M5,0h43.193359375a5,5 0 0 1 5,5v13a5,5 0 0 1 -5,5h-43.193359375a5,5 0 0 1 -5,-5v-13a5,5 0 0 1 5,-5z" style="stroke: rgb(0, 0, 0); fill: rgb(51, 51, 51); stroke-width: 0;"/><text x="7" y="16" style="font-family: -apple-system, BlinkMacSystemFont, &quot;Segoe WPC&quot;, &quot;Segoe UI&quot;, Ubuntu, &quot;Droid Sans&quot;, sans-serif, &quot;PingFang SC&quot;; font-size: 11px; text-rendering: geometricprecision; user-select: none; fill: rgb(255, 255, 255);">Lambda</text><title>lambda_2</title></g><path class="node node-border" d="M5,0h43.193359375a5,5 0 0 1 5,5v13a5,5 0 0 1 -5,5h-43.193359375a5,5 0 0 1 -5,-5v-13a5,5 0 0 1 5,-5z" style="stroke: rgb(51, 51, 51); fill: none; stroke-width: 1px;"/></g><g class="node" transform="translate(59.98291015625,1228)" style=""><g class="node-item graph-item-output" transform="translate(0,0)"><path d="M5,0h50.841796875a5,5 0 0 1 5,5v13a5,5 0 0 1 -5,5h-50.841796875a5,5 0 0 1 -5,-5v-13a5,5 0 0 1 5,-5z" style="stroke: rgb(0, 0, 0); fill: rgb(238, 238, 238); stroke-width: 0;"/><text x="7" y="16" style="font-family: -apple-system, BlinkMacSystemFont, &quot;Segoe WPC&quot;, &quot;Segoe UI&quot;, Ubuntu, &quot;Droid Sans&quot;, sans-serif, &quot;PingFang SC&quot;; font-size: 11px; text-rendering: geometricprecision; user-select: none;">lambda_2</text></g><path class="node node-border" d="M5,0h50.841796875a5,5 0 0 1 5,5v13a5,5 0 0 1 -5,5h-50.841796875a5,5 0 0 1 -5,-5v-13a5,5 0 0 1 5,-5z" style="stroke: rgb(51, 51, 51); fill: none; stroke-width: 1px;"/></g></g><g id="tunnel-edges" class="tunnel-edges"/></g></svg>